<svg xmlns="http://www.w3.org/2000/svg" width="32" height="32" viewBox="0 0 32 32">
  <defs>
    <style>
      .cls-1 {
        fill: none;
        opacity: 0.2;
      }

      .cls-2 {
        fill: #2db400;
      }
    </style>
  </defs>
  <g id="ico_naverblog" transform="translate(-1632 -171)">
    <rect id="Rectangle_2288" data-name="Rectangle 2288" class="cls-1" width="32" height="32" transform="translate(1632 171)"/>
    <g id="naver_blog" data-name="naver blog" transform="translate(1637.003 178)">
      <path id="Path_46" data-name="Path 46" class="cls-2" d="M259.463,99.8a.757.757,0,1,0,.757.757A.757.757,0,0,0,259.463,99.8Z" transform="translate(-254.663 -92.275)"/>
      <circle id="Ellipse_6" data-name="Ellipse 6" class="cls-2" cx="0.816" cy="0.816" r="0.816" transform="translate(11.465 7.449)"/>
      <path id="Path_47" data-name="Path 47" class="cls-2" d="M250.5,49.036H234.386a2.942,2.942,0,0,0-2.942,2.942V61.54a2.942,2.942,0,0,0,2.942,2.943h5.69l1.935,4.56s.133.4.456.4h0c.323,0,.456-.4.456-.4l1.936-4.56H250.5a2.943,2.943,0,0,0,2.942-2.943V51.978A2.942,2.942,0,0,0,250.5,49.036Zm-12.143,8.452a1.822,1.822,0,0,1-1.816,1.8,1.511,1.511,0,0,1-1.094-.463v.315h-1.316V53.71c-.005,0-.006,0,0,0v0c.082.013,1.316,0,1.316,0v2.076c.31-.528,1.2-.519,1.2-.519A1.927,1.927,0,0,1,238.354,57.488Zm2.317-2.057v3.716h-1.288V55.468c0-.5-.621-.64-.621-.64v-1.3A1.781,1.781,0,0,1,240.671,55.431Zm3.054,3.858a1.995,1.995,0,1,1,2.159-1.988A2.079,2.079,0,0,1,243.725,59.288Zm7.057,0a1.838,1.838,0,0,1-1.9,1.888H248.3V59.953h.352s.806.074.8-1.168c0,0-.157.5-1.288.5a1.7,1.7,0,0,1-1.6-1.68v-.593a1.832,1.832,0,0,1,1.8-1.752,1.311,1.311,0,0,1,1.121.5v-.4h1.307Z" transform="translate(-231.444 -49.036)"/>
      <circle id="Ellipse_7" data-name="Ellipse 7" class="cls-2" cx="0.797" cy="0.797" r="0.797" transform="translate(16.493 7.467)"/>
    </g>
  </g>
</svg>
