<svg xmlns="http://www.w3.org/2000/svg" width="32" height="32" viewBox="0 0 32 32">
  <defs>
    <style>
      .cls-1 {
        fill: none;
        opacity: 0.2;
      }
    </style>
  </defs>
  <g id="instagram_nor" transform="translate(-1540 -171)">
    <rect id="Rectangle_2286" data-name="Rectangle 2286" class="cls-1" width="32" height="32" transform="translate(1540 171)"/>
    <g id="instagram" transform="translate(1547.003 178)">
      <path id="Path_44" data-name="Path 44" d="M9,1.622c2.4,0,2.688.009,3.637.052a4.979,4.979,0,0,1,1.671.31,2.788,2.788,0,0,1,1.035.673,2.788,2.788,0,0,1,.673,1.035,4.979,4.979,0,0,1,.31,1.671c.043.949.052,1.234.052,3.637s-.009,2.688-.052,3.637a4.979,4.979,0,0,1-.31,1.671,2.98,2.98,0,0,1-1.708,1.708,4.979,4.979,0,0,1-1.671.31c-.949.043-1.233.052-3.637.052s-2.688-.009-3.637-.052a4.979,4.979,0,0,1-1.671-.31,2.788,2.788,0,0,1-1.035-.673,2.789,2.789,0,0,1-.673-1.035,4.979,4.979,0,0,1-.31-1.671C1.631,11.688,1.622,11.4,1.622,9s.009-2.688.052-3.637a4.979,4.979,0,0,1,.31-1.671,2.788,2.788,0,0,1,.673-1.035,2.788,2.788,0,0,1,1.035-.673,4.979,4.979,0,0,1,1.671-.31C6.312,1.631,6.6,1.622,9,1.622M9,0C6.556,0,6.249.01,5.289.054A6.6,6.6,0,0,0,3.1.473,4.411,4.411,0,0,0,1.511,1.511,4.411,4.411,0,0,0,.473,3.1,6.6,6.6,0,0,0,.054,5.289C.01,6.249,0,6.556,0,9s.01,2.751.054,3.711A6.6,6.6,0,0,0,.473,14.9a4.411,4.411,0,0,0,1.038,1.594A4.411,4.411,0,0,0,3.1,17.527a6.605,6.605,0,0,0,2.185.418C6.249,17.99,6.556,18,9,18s2.751-.01,3.711-.054a6.6,6.6,0,0,0,2.185-.418A4.6,4.6,0,0,0,17.528,14.9a6.606,6.606,0,0,0,.418-2.185C17.99,11.751,18,11.444,18,9s-.01-2.751-.054-3.711A6.606,6.606,0,0,0,17.528,3.1a4.412,4.412,0,0,0-1.038-1.594A4.411,4.411,0,0,0,14.9.473,6.6,6.6,0,0,0,12.711.054C11.751.01,11.444,0,9,0Z" transform="translate(0 0)"/>
      <path id="Path_45" data-name="Path 45" d="M127.178,122.556a4.622,4.622,0,1,0,4.622,4.622A4.622,4.622,0,0,0,127.178,122.556Zm0,7.622a3,3,0,1,1,3-3A3,3,0,0,1,127.178,130.178Z" transform="translate(-118.178 -118.178)"/>
      <circle id="Ellipse_5" data-name="Ellipse 5" cx="1.08" cy="1.08" r="1.08" transform="translate(12.277 4.196) rotate(-45)"/>
    </g>
  </g>
</svg>
