<svg xmlns="http://www.w3.org/2000/svg" width="32" height="32" viewBox="0 0 32 32">
  <defs>
    <style>
      .cls-1 {
        fill: none;
        opacity: 0.2;
      }

      .cls-2 {
        fill: #e62d27;
      }
    </style>
  </defs>
  <g id="ico_youtube" transform="translate(-1723 -171)">
    <rect id="Rectangle_2292" data-name="Rectangle 2292" class="cls-1" width="32" height="32" transform="translate(1723 171)"/>
    <path id="youtube" class="cls-2" d="M209.564,472.228a4.329,4.329,0,0,0-.8-1.985,2.862,2.862,0,0,0-2-.847c-2.8-.2-7-.2-7-.2h-.009s-4.2,0-7,.2a2.863,2.863,0,0,0-2,.847,4.327,4.327,0,0,0-.795,1.985,30.247,30.247,0,0,0-.2,3.237v1.518a30.246,30.246,0,0,0,.2,3.237,4.327,4.327,0,0,0,.795,1.985,3.391,3.391,0,0,0,2.205.855c1.6.154,6.8.2,6.8.2s4.2-.006,7-.209a2.86,2.86,0,0,0,2-.847,4.329,4.329,0,0,0,.8-1.985,30.278,30.278,0,0,0,.2-3.237v-1.518A30.279,30.279,0,0,0,209.564,472.228ZM197.7,478.82V473.2l5.4,2.819Z" transform="translate(1539.239 -289.193)"/>
  </g>
</svg>
