<svg xmlns="http://www.w3.org/2000/svg" width="75" height="60" viewBox="0 0 75 60">
    <defs>
        <clipPath id="clip-path">
            <path id="사각형_11950" fill="#fff" stroke="#707070" d="M0 0H75V60H0z" transform="translate(704 2018)"/>
        </clipPath>
        <style>
            .cls-3{fill:#c5061c}.cls-5{fill:#1a1818}
        </style>
    </defs>
    <g id="icon_WA" clip-path="url(#clip-path)" transform="translate(-704 -2018)">
        <g id="그룹_2517" transform="translate(704 2018)">
            <path id="패스_45118" d="M51.508 14.877L12.06 7.922v33.047l33.789 5.957z" class="cls-3" transform="translate(-11.531 -7.922)"/>
            <path id="패스_45119" fill="#fff" d="M48.833 45.091l-6.1 10.09-2.084-11.532-2.265-.4-6.091 10.039-2.056-11.475-2.719-.479L30.5 57.082l2.2.387 6.066-9.869 2.142 11.315 2.241.395 6.337-10.28 1.042 5.47-1.946-.343-1.463 2.374 3.891.686.724 3.611 2.561.451-2.789-15.716z" transform="translate(-22.321 -31.245)"/>
            <path id="패스_45120" d="M16.783 147.281l-1.413 5.27h-.858l-.969-3.2-.971 3.2h-.857l-1.407-5.27h1.073l.819 3.319.964-3.323h.768l.963 3.323.821-3.323z" class="cls-3" transform="translate(-10.308 -105.198)"/>
            <path id="패스_45121" d="M36.894 152.551h-3.47v-5.27h3.47v.918h-2.441v1.236h2.08v.918h-2.08v1.279h2.441z" class="cls-3" transform="translate(-26.444 -105.198)"/>
            <path id="패스_45122" d="M51.113 151.032a1.428 1.428 0 0 1-.443 1.119 1.686 1.686 0 0 1-1.168.4h-2.207v-5.27h2.118a1.709 1.709 0 0 1 1.2.4 1.4 1.4 0 0 1 .434 1.085 1.225 1.225 0 0 1-.223.718 1.085 1.085 0 0 1-.429.37 1.271 1.271 0 0 1 .481.377 1.321 1.321 0 0 1 .243.807m-1.1-2.226a.574.574 0 0 0-.183-.441.705.705 0 0 0-.5-.165h-1.011v1.215h1.006a.721.721 0 0 0 .5-.165.571.571 0 0 0 .177-.444m.074 2.175a.628.628 0 0 0-.163-.451.7.7 0 0 0-.524-.192h-1.07v1.294H49.4a.665.665 0 0 0 .508-.185.639.639 0 0 0 .179-.466" class="cls-3" transform="translate(-36.126 -105.198)"/>
            <path id="패스_45123" d="M67.45 152.551h-1.074l-.312-.932h-1.872l-.318.932H62.8l1.917-5.27h.8zm-1.659-1.8l-.643-1.918-.666 1.918z" class="cls-3" transform="translate(-46.95 -105.198)"/>
            <path id="패스_45124" d="M83.034 147.281l-1.414 5.27h-.858l-.97-3.2-.969 3.2h-.858l-1.408-5.27h1.074l.814 3.323.961-3.323h.771l.962 3.323.822-3.323z" class="cls-3" transform="translate(-56.551 -105.198)"/>
            <path id="패스_45125" d="M100.648 152.551h-1.072l-.312-.932h-1.872l-.32.932H96l1.917-5.27h.806zm-1.657-1.8l-.644-1.918-.666 1.918z" class="cls-3" transform="translate(-70.124 -105.198)"/>
            <path id="패스_45126" d="M116.214 152.551h-1.19l-1.03-2.1h-.742v2.1h-1.026v-5.27h2.064a1.7 1.7 0 0 1 1.258.474 1.539 1.539 0 0 1 .452 1.139 1.423 1.423 0 0 1-.962 1.381zm-1.244-3.66a.656.656 0 0 0-.2-.505.768.768 0 0 0-.543-.186h-.971v1.384h.971a.757.757 0 0 0 .54-.192.648.648 0 0 0 .207-.5" class="cls-3" transform="translate(-81.449 -105.198)"/>
            <path id="패스_45127" d="M130.585 149.893v.342a4.71 4.71 0 0 1-.074.962 1.683 1.683 0 0 1-.46.85 1.586 1.586 0 0 1-.61.375 2.332 2.332 0 0 1-.78.129h-1.9v-5.27h1.9a2.4 2.4 0 0 1 .777.121 1.587 1.587 0 0 1 .614.382 1.685 1.685 0 0 1 .46.829 4.557 4.557 0 0 1 .074.948zm-1.029 0a6.982 6.982 0 0 0-.039-.914.93.93 0 0 0-.178-.447.846.846 0 0 0-.322-.252 1.144 1.144 0 0 0-.453-.081h-.777v3.433h.777a.928.928 0 0 0 .769-.325.912.912 0 0 0 .184-.462 7.6 7.6 0 0 0 .039-.952" class="cls-3" transform="translate(-91.595 -105.198)"/>
            <g id="그룹_2515" transform="translate(7.317 49.577)">
                <path id="패스_45128" d="M34.54 176.21v-.473h.832v-2.931h-.832v-.473h2.2v.473h-.83v2.931h.832v.473z" class="cls-5" transform="translate(-34.54 -172.262)"/>
                <path id="패스_45129" d="M46.636 176.215l-1.859-2.974h-.011v2.969h-.506v-3.877h.527l1.843 2.925h.016v-2.925h.5v3.882z" class="cls-5" transform="translate(-41.325 -172.262)"/>
                <path id="패스_45130" d="M58.876 176.215l-1.86-2.974h-.011v2.969H56.5v-3.877h.528l1.843 2.925h.016v-2.925h.5v3.882z" class="cls-5" transform="translate(-49.869 -172.262)"/>
                <path id="패스_45131" d="M69.913 176.112a1.321 1.321 0 0 1-1.479-1.31v-1.289a1.387 1.387 0 0 1 1.479-1.414 1.354 1.354 0 0 1 1.49 1.354v1.267a1.388 1.388 0 0 1-1.49 1.392zm-.011-3.534a.86.86 0 0 0-.924.908v1.283a.943.943 0 0 0 1.881-.011v-1.316a.849.849 0 0 0-.959-.864z" class="cls-5" transform="translate(-58.199 -172.099)"/>
                <path id="패스_45132" d="M81.334 176.226h-.544l-1.25-3.893h.554l.968 3.121h.016l.952-3.121h.56z" class="cls-5" transform="translate(-65.951 -172.262)"/>
                <path id="패스_45133" d="M91.553 176.172l-.353-1.017h-1.512l-.353 1.017h-.544l1.419-3.893h.5l1.4 3.893zm-1.1-3.214h-.011l-.6 1.74h1.207z" class="cls-5" transform="translate(-72.409 -172.225)"/>
                <path id="패스_45134" d="M100.895 172.8v3.409h-.544V172.8h-1.12v-.468h2.778v.468z" class="cls-5" transform="translate(-79.696 -172.262)"/>
                <path id="패스_45135" d="M111.438 176.112a1.321 1.321 0 0 1-1.479-1.31v-1.289a1.387 1.387 0 0 1 1.479-1.414 1.354 1.354 0 0 1 1.49 1.354v1.267a1.388 1.388 0 0 1-1.49 1.392zm-.011-3.534a.86.86 0 0 0-.924.908v1.283a.943.943 0 0 0 1.881-.011v-1.316a.849.849 0 0 0-.957-.864z" class="cls-5" transform="translate(-87.184 -172.099)"/>
                <path id="패스_45136" d="M124.392 176.21l-1-1.512h-.69v1.512h-.538v-3.877h1.4a1.364 1.364 0 0 1 .87.256 1.191 1.191 0 0 1-.478 2.06L125 176.21zm-.946-3.42h-.746v1.452h.756c.544 0 .853-.245.853-.74.002-.522-.409-.712-.863-.712z" class="cls-5" transform="translate(-95.703 -172.262)"/>
            </g>
            <g id="그룹_2516" transform="translate(.316 49.289)">
                <path id="패스_45137" d="M11.454 175.41v-.493l1.4-1.642a1.35 1.35 0 0 0 .381-.9v-.106c0-.287-.182-.51-.581-.51a.525.525 0 0 0-.586.551v.111h-.71v-.152c0-.733.569-1.1 1.355-1.1a1.141 1.141 0 0 1 1.279 1.179 2.8 2.8 0 0 1-1.021 1.824l-.54.6v.012h1.619v.628z" class="cls-3" transform="translate(-11.354 -171.157)"/>
                <path id="패스_45138" d="M21.882 175.467c-.733 0-1.461-.358-1.461-1.25v-1.789a1.316 1.316 0 0 1 1.466-1.284 1.291 1.291 0 0 1 1.443 1.29v1.766a1.317 1.317 0 0 1-1.448 1.267zm.669-3.062a.614.614 0 0 0-.663-.645.637.637 0 0 0-.68.668v1.76a.672.672 0 0 0 1.343-.006z" class="cls-3" transform="translate(-17.683 -171.144)"/>
            </g>
        </g>
    </g>
</svg>
