<?xml version="1.0" encoding="utf-8"?>
<!-- Generator: Adobe Illustrator 24.1.3, SVG Export Plug-In . SVG Version: 6.00 Build 0)  -->
<svg version="1.1" id="Layer_1" xmlns="http://www.w3.org/2000/svg" xmlns:xlink="http://www.w3.org/1999/xlink" x="0px" y="0px"
	 viewBox="0 0 40 40" style="enable-background:new 0 0 40 40;" xml:space="preserve">
<g id="prefix__Group_2139" transform="translate(0 .059)">
	<g id="prefix__Ellipse_3" transform="translate(1841.935 43.941)">
		<path d="M-1824-33c3.9,0,7,3.1,7,7s-3.1,7-7,7s-7-3.1-7-7S-1827.9-33-1824-33 M-1824-34c-4.4,0-8,3.6-8,8s3.6,8,8,8s8-3.6,8-8
			S-1819.6-34-1824-34L-1824-34z"/>
		<path d="M-1824-32c3.3,0,6,2.7,6,6s-2.7,6-6,6s-6-2.7-6-6S-1827.3-32-1824-32 M-1824-33c-3.9,0-7,3.1-7,7s3.1,7,7,7s7-3.1,7-7
			S-1820.1-33-1824-33L-1824-33z"/>
	</g>
	<rect x="25.5" y="21.5" transform="matrix(0.7071 -0.7072 0.7072 0.7071 -10.9674 26.4717)" width="2" height="10"/>
</g>
</svg>
